<?xml version="1.0" encoding="UTF-8"?>
<svg width="124px" height="48px" viewBox="0 0 124 48" version="1.1" xmlns="http://www.w3.org/2000/svg" xmlns:xlink="http://www.w3.org/1999/xlink">
    <title>logo</title>
    <g id="页面-1" stroke="none" stroke-width="1" fill="none" fill-rule="evenodd">
        <g id="画板" transform="translate(-40.000000, -87.000000)" fill="#FFFFFF">
            <g id="logo" transform="translate(40.000000, 87.000000)">
                <path d="M31.4919,-0.0001 L31.2129,0.3549 L31.3799,0.7749 L31.8289,0.8399 L32.1079,0.4839 L31.9399,0.0639 L31.4919,-0.0001 Z M23.7139,0.9229 L23.9539,1.5219 L24.5939,1.6159 L24.9919,1.1069 L24.7519,0.5079 L24.1129,0.4159 L23.7139,0.9229 Z M27.1489,0.7979 L27.1019,1.1429 L27.3769,1.3559 L27.6989,1.2229 L27.7449,0.8789 L27.4699,0.6669 L27.1489,0.7979 Z M30.0859,1.8869 L30.3239,2.4879 L30.9649,2.5799 L31.3629,2.0719 L31.1239,1.4719 L30.4839,1.3809 L30.0859,1.8869 Z M27.0029,1.8019 L26.9359,2.2949 L27.3299,2.5969 L27.7899,2.4089 L27.8549,1.9159 L27.4629,1.6129 L27.0029,1.8019 Z M24.3609,2.6799 L24.4589,3.5189 L25.2339,3.8559 L25.9129,3.3499 L25.8149,2.5089 L25.0389,2.1749 L24.3609,2.6799 Z M26.8299,2.8689 L26.6239,3.4419 L27.0169,3.9049 L27.6169,3.7969 L27.8209,3.2249 L27.4279,2.7589 L26.8299,2.8689 Z M28.6079,3.3229 L28.7059,4.1629 L29.4819,4.4969 L30.1589,3.9929 L30.0619,3.1539 L29.2859,2.8189 L28.6079,3.3229 Z M11.0659,3.2089 L11.0009,3.6569 L11.3559,3.9379 L11.7769,3.7689 L11.8399,3.3219 L11.4849,3.0419 L11.0659,3.2089 Z M17.6659,3.1949 L17.4129,3.9089 L17.8539,4.4239 L17.4659,4.4409 L17.0539,5.2279 L17.3489,5.6919 L17.2669,5.6849 L17.0789,5.9689 L16.9769,5.9069 L16.5979,6.1159 L16.5349,5.9989 L15.5509,5.9699 L15.0319,6.8079 L15.1919,7.1029 L14.7149,7.4119 L14.7149,7.4249 L14.6669,7.1859 L14.1169,6.9969 L13.6789,7.3799 L13.7909,7.9509 L14.3429,8.1389 L14.7359,7.7969 L14.7499,8.0949 L15.0309,8.2379 L14.7469,8.6989 L15.2129,9.5649 L15.9969,9.5899 L16.5269,9.9109 L16.6299,10.1199 L16.6049,10.1199 L16.1949,10.9079 L16.6719,11.6579 L16.6909,11.6569 L16.3759,11.7169 L16.1249,12.4299 L16.6159,13.0039 L17.3589,12.8659 L17.6109,12.1539 L17.1699,11.6379 L17.5579,11.6219 L17.9699,10.8339 L17.6769,10.3709 L17.7589,10.3769 L17.9459,10.0929 L18.0489,10.1539 L18.4279,9.9449 L18.4909,10.0629 L19.4739,10.0929 L19.9939,9.2559 L19.8329,8.9599 L20.3099,8.6499 L20.3099,8.6369 L20.3559,8.8769 L20.9079,9.0639 L21.3459,8.6819 L21.2349,8.1099 L20.6839,7.9219 L20.2899,8.2669 L20.2739,7.9669 L19.9949,7.8239 L20.2789,7.3619 L19.8139,6.4959 L19.0289,6.4729 L18.4989,6.1519 L18.3949,5.9419 L18.4189,5.9409 L18.8309,5.1529 L18.3549,4.4029 L18.3379,4.4029 L18.6499,4.3449 L18.9019,3.6319 L18.4109,3.0559 L17.6659,3.1949 Z M35.6639,3.5569 L35.5719,4.1949 L36.0779,4.5939 L36.6789,4.3539 L36.7709,3.7139 L36.2629,3.3159 L35.6639,3.5569 Z M22.4039,3.6569 L22.3369,4.1479 L22.7319,4.4519 L23.1909,4.2629 L23.2569,3.7709 L22.8629,3.4679 L22.4039,3.6569 Z M15.3669,3.8639 L15.5559,4.3249 L16.0479,4.3899 L16.3499,3.9959 L16.1619,3.5369 L15.6709,3.4699 L15.3669,3.8639 Z M12.5159,4.0459 L12.4239,4.6849 L12.9299,5.0849 L13.5309,4.8459 L13.6229,4.2059 L13.1159,3.8079 L12.5159,4.0459 Z M26.6569,3.9359 L26.4819,4.2629 L25.9639,3.9369 L25.0079,4.4379 L24.9709,5.3239 L24.6029,5.9219 L24.3359,6.0529 L24.3339,6.0289 L23.4909,5.5729 L23.3869,5.6379 L22.9539,5.2969 L22.3549,5.5369 L22.3299,5.7109 L21.7929,5.5119 L21.3189,5.9049 L20.8989,5.9609 L20.7319,5.5419 L20.0929,5.4499 L19.8689,5.7339 L19.8129,5.3299 L19.2409,5.0999 L18.7569,5.4799 L18.8449,6.0889 L19.4149,6.3169 L19.7369,6.0639 L19.9329,6.5569 L20.3379,6.6149 L20.2869,6.7389 L20.7739,7.3729 L21.5639,7.2679 L21.7009,6.9369 L22.0599,7.0699 L22.6679,6.5659 L22.6529,6.4839 L22.6849,6.5099 L22.7019,7.0359 L23.5449,7.4909 L24.0919,7.1539 L24.0839,7.2759 L24.4099,7.4939 L24.3409,7.6089 L24.5769,8.0489 L24.4499,8.1159 L24.4069,9.1939 L25.3199,9.7719 L25.6739,9.5859 L26.0139,10.1229 L26.7509,10.0939 L26.9239,9.7659 L27.4429,10.0939 L28.3989,9.5909 L28.4349,8.7069 L28.7679,8.1679 L29.1119,8.0029 L29.1139,8.0759 L29.9259,8.5279 L30.7239,8.0499 L30.7079,7.1199 L30.2569,6.8699 L30.3239,6.8419 L30.4169,6.2029 L30.2549,6.0749 L30.4139,5.6959 L30.0209,5.1779 L29.3739,5.2599 L29.1219,5.8589 L29.3029,6.0969 L29.2189,6.6829 L29.5029,6.9049 L29.3069,7.0209 L29.3229,6.8179 L28.9699,6.5769 L29.0669,6.4219 L28.8299,5.9809 L28.9559,5.9139 L28.9999,4.8359 L28.0869,4.2579 L27.7329,4.4439 L27.3929,3.9069 L26.6569,3.9359 Z M19.7429,4.4819 L19.9329,4.9419 L20.4259,5.0079 L20.7289,4.6139 L20.5399,4.1549 L20.0479,4.0889 L19.7429,4.4819 Z M23.7049,4.4599 L23.4539,5.0609 L23.8469,5.5769 L24.4929,5.4959 L24.7439,4.8959 L24.3509,4.3789 L23.7049,4.4599 Z M30.9069,4.8549 L30.8419,5.3489 L31.2349,5.6509 L31.6949,5.4629 L31.7609,4.9709 L31.3679,4.6669 L30.9069,4.8549 Z M35.4029,5.0149 L35.1159,5.7729 L35.6289,6.3989 L36.4289,6.2679 L36.7149,5.5119 L36.2029,4.8839 L35.4029,5.0149 Z M14.0329,5.0079 L13.7289,5.7449 L14.2159,6.3789 L15.0069,6.2739 L15.3119,5.5349 L14.8249,4.9019 L14.0329,5.0079 Z M32.6929,5.7649 L32.8819,6.2249 L33.3739,6.2909 L33.6769,5.8979 L33.4879,5.4379 L32.9959,5.3719 L32.6929,5.7649 Z M37.8919,6.4989 L38.0809,6.9589 L38.5739,7.0249 L38.8769,6.6299 L38.6879,6.1729 L38.1949,6.1069 L37.8919,6.4989 Z M35.1419,6.4749 L34.6619,7.3499 L35.0229,7.9439 L34.8809,7.9339 L34.6439,8.2829 L34.5229,8.2079 L34.0499,8.4589 L33.9819,8.3279 L33.6579,8.3119 L33.6949,8.2659 L33.5799,7.9749 L33.9189,8.1199 L34.4549,7.7179 L34.3759,7.0529 L33.7599,6.7899 L33.2229,7.1909 L33.2839,7.6969 L32.9039,7.6419 L32.5449,8.0979 L32.7059,8.5029 L32.2409,9.2309 L32.4429,9.6179 L31.8719,9.9709 L31.8829,10.2729 L31.7919,9.7509 L31.2079,9.5369 L30.9569,9.7449 L30.7389,9.5769 L30.3799,9.7249 L30.3179,9.5729 L29.8249,9.5079 L29.5229,9.9009 L29.7109,10.3599 L30.2019,10.4259 L30.2889,10.3169 L30.6059,10.5619 L30.8219,10.4719 L30.8359,10.5499 L31.4199,10.7649 L31.8859,10.3759 L31.8979,10.7389 L32.2519,10.9299 L31.9009,11.4799 L32.4229,12.4829 L33.3619,12.5259 L33.9989,12.9229 L34.1409,13.2189 L34.1209,13.2189 L33.6399,14.0959 L34.1579,14.9479 L35.1559,14.9259 L35.6369,14.0519 L35.2759,13.4559 L35.4179,13.4669 L35.6529,13.1189 L35.7729,13.1939 L36.2489,12.9409 L36.3159,13.0739 L37.4469,13.1239 L38.0569,12.1709 L37.9149,11.8969 L37.9439,11.9029 L38.2119,11.5619 L38.4259,11.4289 L38.4009,10.6619 L38.0469,10.4719 L38.3979,9.9219 L37.8759,8.9169 L36.9349,8.8749 L36.2989,8.4779 L36.1559,8.1819 L36.1779,8.1819 L36.6579,7.3049 L36.1399,6.4529 L35.1419,6.4749 Z M12.6419,7.3479 L12.8319,7.8079 L13.3249,7.8729 L13.6279,7.4799 L13.4379,7.0199 L12.9449,6.9539 L12.6419,7.3479 Z M31.0799,7.1599 L30.9069,7.5539 L30.8209,7.6229 L30.8359,7.7159 L30.7309,7.9569 L30.9129,8.2079 L30.9379,8.3569 L31.0579,8.4039 L31.2449,8.6589 L31.6149,8.6189 L31.6309,8.6249 L31.6419,8.6159 L32.1089,8.5639 L32.4599,7.7669 L31.9459,7.0649 L31.0799,7.1599 Z M36.6899,7.6809 L36.7699,8.3459 L37.3839,8.6089 L37.9219,8.2079 L37.8419,7.5429 L37.2259,7.2789 L36.6899,7.6809 Z M40.9949,7.8129 L40.9019,8.4519 L41.4099,8.8519 L42.0089,8.6119 L42.1019,7.9719 L41.5939,7.5739 L40.9949,7.8129 Z M23.2439,7.7339 L22.9919,8.3339 L23.3869,8.8519 L24.0319,8.7699 L24.2839,8.1699 L23.8889,7.6509 L23.2439,7.7339 Z M21.3979,8.5809 L21.5869,9.0409 L21.6479,9.0499 L21.6469,9.0589 L22.0379,9.3629 L22.4989,9.1739 L22.5649,8.6809 L22.2769,8.4589 L22.1939,8.2539 L21.7009,8.1889 L21.3979,8.5809 Z M38.8689,8.3389 L38.5179,9.1369 L39.0339,9.8389 L39.8999,9.7439 L40.2499,8.9469 L39.7349,8.2449 L38.8689,8.3389 Z M13.5079,8.7879 L13.2689,8.7529 L12.8679,9.2619 L13.1079,9.8619 L13.4439,9.9099 L13.6399,10.1649 L14.4339,10.0599 L14.7379,9.3219 L14.2519,8.6889 L13.5079,8.7879 Z M10.3319,9.1549 L10.2649,9.6469 L10.6589,9.9509 L11.1179,9.7609 L11.1849,9.2679 L10.7919,8.9659 L10.3319,9.1549 Z M8.1179,9.9289 L8.2269,10.6969 L8.9449,10.9869 L9.5549,10.5079 L9.4469,9.7409 L8.7279,9.4509 L8.1179,9.9289 Z M11.6559,9.7259 L11.5629,10.3659 L11.6799,10.4579 L11.6689,10.4669 L11.7769,11.2339 L12.4949,11.5249 L13.1059,11.0479 L12.9969,10.2779 L12.7219,10.1679 L12.7629,9.8869 L12.2549,9.4869 L11.6559,9.7259 Z M23.2459,10.0359 L23.3449,10.8759 L24.1209,11.2099 L24.7989,10.7059 L24.6999,9.8659 L23.9239,9.5319 L23.2459,10.0359 Z M20.0189,9.7879 L19.7129,10.5259 L20.1999,11.1599 L20.9909,11.0549 L21.2969,10.3169 L20.8099,9.6829 L20.0189,9.7879 Z M15.1269,10.1229 L15.2139,10.7319 L15.7839,10.9609 L16.2679,10.5809 L16.1799,9.9729 L15.6109,9.7439 L15.1269,10.1229 Z M10.2029,10.0589 L10.0229,10.5979 L10.3319,10.9469 L10.0739,10.9629 L9.9459,11.2189 L9.5149,10.9559 L8.6919,11.4019 L8.6759,12.1369 L8.3789,12.6309 L8.1999,12.7219 L8.1989,12.6959 L7.4409,12.3079 L6.7639,12.7459 L6.7099,12.4719 L6.0109,12.2319 L5.4529,12.7179 L5.5949,13.4419 L6.2939,13.6829 L6.7509,13.2849 L6.7669,13.6219 L7.5249,14.0099 L7.9439,13.7389 L7.9419,13.8009 L8.2029,13.9729 L8.1449,14.0689 L8.3399,14.4159 L8.2279,14.4769 L8.2049,15.4119 L9.0029,15.8989 L9.2689,15.7549 L9.5449,16.1719 L9.3349,16.2139 L9.1559,16.7539 L9.5319,17.1789 L10.0899,17.0649 L10.2689,16.5259 L9.9589,16.1769 L10.2189,16.1609 L10.3299,15.9369 L10.7449,16.2099 L11.6189,15.7709 L11.6679,14.9019 L11.9119,14.4929 L12.0909,14.4039 L12.0929,14.4279 L12.8509,14.8169 L13.5289,14.3779 L13.5829,14.6519 L14.2809,14.8919 L14.8389,14.4069 L14.6979,13.6829 L13.9989,13.4419 L13.5409,13.8389 L13.5249,13.5029 L12.7669,13.1139 L12.3469,13.3849 L12.3509,13.3229 L12.0879,13.1509 L12.1469,13.0549 L11.9529,12.7079 L12.0639,12.6479 L12.0869,11.7119 L11.2889,11.2249 L11.0229,11.3699 L10.7479,10.9519 L10.9579,10.9089 L11.1379,10.3699 L10.7599,9.9449 L10.2029,10.0589 Z M25.7909,10.2329 L25.5859,10.8059 L25.9799,11.2709 L26.5779,11.1619 L26.7829,10.5889 L26.3899,10.1239 L25.7909,10.2329 Z M18.0439,10.5359 L18.1319,11.1439 L18.7029,11.3719 L19.1849,10.9929 L19.0989,10.3839 L18.5279,10.1569 L18.0439,10.5359 Z M27.4929,10.6789 L27.5899,11.5189 L28.3679,11.8529 L29.0459,11.3499 L28.9479,10.5089 L28.1719,10.1739 L27.4929,10.6789 Z M6.4879,10.7049 L6.4219,11.1969 L6.8159,11.4999 L7.2749,11.3109 L7.3399,10.8189 L6.9479,10.5169 L6.4879,10.7049 Z M45.6889,10.9669 L45.8479,11.3669 L46.2749,11.4269 L46.5399,11.0909 L46.3799,10.6909 L45.9549,10.6309 L45.6889,10.9669 Z M38.4629,11.0369 L38.5699,11.6499 L39.1549,11.8649 L39.6329,11.4649 L39.5259,10.8509 L38.9409,10.6369 L38.4629,11.0369 Z M39.8559,11.3679 L40.0449,11.8269 L40.5369,11.8929 L40.8389,11.4999 L40.6499,11.0409 L40.1589,10.9749 L39.8559,11.3679 Z M21.4929,11.2179 L21.4019,11.8569 L21.9089,12.2549 L22.1269,12.1679 L22.2819,12.5569 L22.9209,12.6499 L23.3199,12.1429 L23.0819,11.5419 L22.5879,11.4709 L22.6019,11.3769 L22.0939,10.9769 L21.4929,11.2179 Z M14.2969,11.4469 L14.4859,11.9069 L14.9779,11.9739 L15.2809,11.5789 L15.0929,11.1199 L14.6009,11.0539 L14.2969,11.4469 Z M7.5959,11.3939 L7.3799,11.9479 L7.7529,12.4149 L8.3399,12.3249 L8.5599,11.7699 L8.1879,11.3049 L7.5959,11.3939 Z M13.5959,11.7079 L13.5309,12.1999 L13.9239,12.5039 L14.3829,12.3149 L14.4499,11.8219 L14.0559,11.5179 L13.5959,11.7079 Z M30.3999,11.6569 L30.0489,12.4539 L30.5629,13.1549 L31.4279,13.0619 L31.7789,12.2639 L31.2639,11.5619 L30.3999,11.6569 Z M18.6729,12.0649 L18.8629,12.5239 L19.3559,12.5899 L19.6589,12.1969 L19.4719,11.7379 L18.9779,11.6719 L18.6729,12.0649 Z M25.4359,11.8419 L25.3899,12.1879 L25.6649,12.3989 L25.9869,12.2659 L26.0339,11.9219 L25.7579,11.7109 L25.4359,11.8419 Z M44.5109,12.4159 L44.7379,12.9849 L45.3469,13.0729 L45.7259,12.5899 L45.4979,12.0199 L44.8909,11.9329 L44.5109,12.4159 Z M12.3359,12.0629 L12.1189,12.6169 L12.4909,13.0839 L13.0809,12.9929 L13.2989,12.4379 L12.9249,11.9739 L12.3359,12.0629 Z M4.1819,12.6639 L4.4209,13.2619 L5.0599,13.3549 L5.4599,12.8479 L5.2199,12.2479 L4.5799,12.1569 L4.1819,12.6639 Z M41.0239,12.3539 L40.9609,12.8229 L41.3349,13.1109 L41.7729,12.9309 L41.8359,12.4639 L41.4599,12.1739 L41.0239,12.3539 Z M3.1199,12.6219 L3.2869,13.0419 L3.7329,13.1069 L4.0139,12.7519 L3.8449,12.3319 L3.3979,12.2659 L3.1199,12.6219 Z M37.7589,12.7869 L37.8599,13.5399 L37.8759,13.5469 L37.8369,13.6329 L38.3219,14.2959 L38.3209,15.2559 L39.0349,15.6689 L38.8859,15.7389 L38.8779,15.8299 L38.8209,15.7339 L38.0339,15.7509 L37.6559,16.4399 L38.0249,17.0509 L37.9439,17.0899 L37.9439,17.0709 L37.0539,16.5689 L36.1739,17.0899 L36.1839,18.1129 L37.0759,18.6129 L37.7279,18.2279 L37.7139,18.3999 L37.8459,18.4909 L37.6469,18.4949 L37.2679,19.1839 L37.6749,19.8569 L38.3899,19.8419 L38.3819,19.9309 L38.3659,19.9219 L37.4869,20.4429 L37.4979,21.4649 L38.3859,21.9649 L39.1589,21.5099 L39.5689,21.5649 L39.7319,21.3539 L39.8579,21.5629 L40.6449,21.5469 L40.9129,21.0569 L41.5119,21.4429 L42.0079,21.1889 L42.3129,21.5829 L41.6999,22.0239 L41.7129,22.1609 L41.2619,22.9429 L41.7149,23.7289 L41.4919,23.7109 L41.3549,23.9049 L41.3529,23.6419 L40.5769,23.2049 L40.2419,23.4049 L40.0679,23.2699 L40.0819,23.2759 L40.6169,22.8529 L40.5529,22.4149 L40.6549,22.1479 L40.2639,21.6669 L39.6529,21.7659 L39.4659,22.2569 L39.3489,22.3489 L39.4489,23.0229 L39.8399,23.1799 L39.4769,23.3299 L39.4149,23.7979 L39.7869,24.0859 L39.8139,24.0749 L39.8189,24.4969 L39.6679,24.4849 L39.6769,24.4709 L39.0979,23.4679 L37.9409,23.4669 L37.3629,24.4709 L37.9409,25.4739 L38.8489,25.4739 L38.7199,25.6569 L38.8229,25.8749 L38.5919,25.7439 L37.8239,26.1979 L37.8329,27.0869 L38.5639,27.4999 L38.4789,27.6249 L38.4709,27.6099 L37.3129,27.6099 L36.7349,28.6119 L37.3129,29.6149 L38.2929,29.6159 L38.0919,30.1519 L38.3699,30.4909 L38.1789,30.6419 L38.1979,30.7599 L38.0839,30.7659 L37.6709,31.5499 L37.7809,31.7239 L37.6319,31.7039 L37.3289,32.0989 L37.3539,32.1609 L37.2689,32.0999 L37.2759,32.0969 L37.2949,30.8039 L36.1879,30.1449 L35.0609,30.7739 L35.0409,32.0629 L35.9729,32.6189 L35.7079,32.7409 L35.6759,33.0979 L35.5009,32.7889 L34.5079,32.7839 L34.0079,33.6409 L34.1739,33.9339 L33.1559,34.4549 L32.1599,33.9169 L31.1769,34.5219 L31.2109,35.6749 L32.2259,36.2209 L32.8419,35.8419 L32.8339,36.0139 L33.8669,36.6789 L33.4859,37.3289 L33.9809,38.1909 L34.6289,38.1929 L34.6109,38.3419 L35.8739,39.2749 L36.4999,39.0019 L36.8289,39.6279 L36.4229,40.3979 L36.8959,41.1479 L37.7809,41.1139 L38.1949,40.3299 L37.8979,39.8579 L38.0299,39.8619 L38.2409,39.5259 L38.5979,39.7789 L38.5889,39.7829 L38.5709,41.0739 L39.6779,41.7349 L40.8049,41.1069 L40.8239,39.8159 L39.8939,39.2599 L40.1569,39.1369 L40.1879,38.7999 L40.3639,39.1039 L41.3669,39.1029 L41.8689,38.2339 L41.7029,37.9419 L42.7109,37.4229 L43.7069,37.9609 L44.6879,37.3559 L44.6549,36.2039 L43.6419,35.6569 L43.0239,36.0379 L43.0319,35.8659 L41.9999,35.1999 L42.3789,34.5519 L41.8859,33.6899 L41.5439,33.6879 L41.7529,33.1699 L41.6629,33.0559 L42.0749,32.8229 L42.0879,31.6579 L42.3379,31.2209 L42.2689,31.1029 L42.5819,31.2359 L42.9689,30.9429 L43.0079,30.9649 L43.7749,30.5129 L43.7649,29.6729 L43.9159,29.6849 L43.9079,29.6979 L44.4869,30.7019 L45.6439,30.7019 L46.2219,29.6999 L45.6439,28.6969 L44.7359,28.6969 L44.8649,28.5129 L44.7629,28.2969 L44.9919,28.4259 L45.7599,27.9729 L45.7509,27.0829 L45.0189,26.6699 L45.1059,26.5459 L45.1139,26.5589 L46.2709,26.5609 L46.8499,25.5579 L46.2719,24.5549 L45.1149,24.5549 L44.6599,25.3399 L44.5649,25.1379 L44.3259,25.1179 L44.5549,24.9829 L44.5459,24.0929 L43.7699,23.6549 L43.2969,23.9349 L43.2239,23.9239 L43.1429,24.0259 L43.0469,24.0829 L42.9829,23.9459 L42.9979,23.9449 L43.5759,22.9449 L43.3029,22.4679 L43.2419,21.8679 L42.7469,21.6439 L43.2769,21.5729 L43.4939,21.0429 L43.6769,21.2699 L44.2869,21.1719 L44.5099,20.5939 L44.1179,20.1119 L43.5069,20.2099 L43.4029,20.4829 L43.3009,20.3519 L43.5929,19.8209 L43.2829,19.3099 L43.4189,19.2539 L44.1949,19.6909 L45.0749,19.1719 L45.0629,18.1489 L44.1739,17.6479 L43.5199,18.0339 L43.5339,17.8609 L43.4029,17.7709 L43.6009,17.7679 L43.9799,17.0779 L43.5729,16.4059 L42.8589,16.4199 L42.8649,16.3299 L42.8819,16.3399 L43.7619,15.8189 L43.7509,14.7979 L42.8599,14.2959 L41.9809,14.8169 L41.9879,15.5749 L41.8449,15.4759 L41.7029,15.5449 L41.7969,15.3709 L41.3899,14.6979 L41.0619,14.7049 L40.5719,14.3189 L40.0429,14.5309 L40.0439,14.2639 L39.3769,13.8789 L39.5689,13.4439 L39.0869,12.7869 L39.0619,12.6099 L38.3589,12.3209 L37.7589,12.7869 Z M38.8279,28.9969 L38.9069,29.0579 L39.0119,29.0139 L39.0209,29.0329 L39.2579,29.0539 L39.0299,29.1869 L39.0339,29.4379 L39.0049,29.4019 L38.5489,29.4779 L38.8279,28.9969 Z M40.5339,30.0909 L40.5909,30.2139 L40.5739,30.2139 L39.9919,31.2329 L40.0669,31.3609 L39.8289,31.4949 L39.8169,32.5679 L39.5879,32.4069 L39.2099,32.5819 L39.0369,32.2519 L39.4429,31.4819 L39.3029,31.2599 L39.4489,31.1449 L39.3489,30.4699 L39.2489,30.4319 L39.3229,30.2359 L39.8159,30.5139 L40.5339,30.0909 Z M28.6239,12.6549 L28.2889,12.7889 L28.1969,13.4289 L28.7039,13.8279 L29.2529,13.6089 L29.2929,13.6139 L29.6929,13.1069 L29.4539,12.5069 L28.8139,12.4149 L28.6239,12.6549 Z M32.3769,13.1939 L32.4579,13.8589 L33.0719,14.1219 L33.6099,13.7209 L33.5299,13.0559 L32.9139,12.7929 L32.3769,13.1939 Z M16.1449,13.3109 L16.0529,13.9499 L16.5589,14.3509 L17.1589,14.1109 L17.2519,13.4719 L16.7449,13.0729 L16.1449,13.3109 Z M43.2459,13.6149 L43.3649,14.4109 L44.1139,14.7059 L44.7439,14.2049 L44.6239,13.4089 L43.8749,13.1139 L43.2459,13.6149 Z M35.8439,13.6829 L35.9229,14.3479 L35.9999,14.3809 L35.8869,14.4289 L35.8219,14.8959 L36.1959,15.1849 L36.6329,15.0049 L36.6949,14.5369 L36.6669,14.5149 L37.0749,14.2099 L36.9959,13.5449 L36.3789,13.2809 L35.8439,13.6829 Z M40.8139,13.5349 L40.5939,14.1129 L40.9839,14.5939 L41.5949,14.4959 L41.8169,13.9169 L41.4259,13.4359 L40.8139,13.5349 Z M7.2119,14.1299 L6.9949,14.6849 L7.3669,15.1519 L7.9549,15.0619 L8.1729,14.5049 L7.8009,14.0409 L7.2119,14.1299 Z M31.4229,14.7709 L31.6119,15.2319 L32.1029,15.2959 L32.4079,14.9019 L32.2179,14.4429 L31.7259,14.3769 L31.4229,14.7709 Z M5.9089,14.8099 L5.8429,15.3019 L6.2359,15.6049 L6.6959,15.4159 L6.7619,14.9239 L6.3679,14.6199 L5.9089,14.8099 Z M11.9489,14.7989 L11.7329,15.3529 L12.1049,15.8189 L12.6959,15.7299 L12.9119,15.1749 L12.5409,14.7089 L11.9489,14.7989 Z M36.9599,15.0889 L36.9499,15.1139 L36.9239,15.1099 L36.6209,15.5029 L36.8089,15.9619 L36.9979,15.9889 L37.1299,16.1489 L37.7409,16.0509 L37.9619,15.4729 L37.5709,14.9919 L36.9599,15.0889 Z M33.8709,15.1329 L33.5839,15.8909 L34.0969,16.5169 L34.8959,16.3849 L35.1809,15.6289 L34.6699,15.0019 L33.8709,15.1329 Z M45.3899,15.7709 L45.3269,16.2369 L45.7009,16.5249 L46.1369,16.3469 L46.1999,15.8789 L45.8259,15.5909 L45.3899,15.7709 Z M7.1869,16.0789 L7.2499,16.5209 L7.2059,16.5379 L7.1369,17.0169 L7.5169,17.3169 L7.9679,17.1379 L7.9699,17.1169 L8.0139,17.1339 L8.6239,16.6569 L8.5159,15.8909 L7.7979,15.6009 L7.1869,16.0789 Z M13.0179,15.8119 L12.9519,16.3039 L13.3459,16.6079 L13.8039,16.4189 L13.8699,15.9259 L13.4779,15.6219 L13.0179,15.8119 Z M10.6969,16.5169 L10.7409,17.3679 L11.4989,17.7569 L12.2139,17.2939 L12.1709,16.4429 L11.4139,16.0539 L10.6969,16.5169 Z M32.8979,16.9649 L33.1239,17.5339 L33.5399,17.5949 L33.5279,17.6849 L34.0339,18.0849 L34.6359,17.8449 L34.6469,17.7689 L34.6549,17.8229 L35.4029,18.1169 L36.0329,17.6169 L35.9139,16.8199 L35.1649,16.5259 L34.5359,17.0269 L34.5399,17.0599 L34.2199,16.8069 L34.0109,16.8899 L33.8839,16.5699 L33.2759,16.4829 L32.8979,16.9649 Z M6.1459,17.6789 L6.3849,18.2779 L6.8189,18.3409 L7.0879,18.6679 L7.6829,18.5679 L7.8939,18.0049 L7.5119,17.5379 L7.3079,17.5729 L7.1859,17.2639 L6.5459,17.1719 L6.1459,17.6789 Z M9.1729,17.3619 L9.1079,17.8539 L9.5009,18.1589 L9.9599,17.9689 L10.0269,17.4769 L9.6329,17.1739 L9.1729,17.3619 Z M4.4989,18.2439 L4.6889,18.7049 L5.1809,18.7699 L5.4849,18.3759 L5.2949,17.9169 L4.8029,17.8519 L4.4989,18.2439 Z M11.4119,18.3359 L11.5529,19.0609 L12.2519,19.3019 L12.8099,18.8179 L12.6679,18.0929 L11.9689,17.8519 L11.4119,18.3359 Z M2.0049,18.3609 L1.9119,19.0009 L2.4189,19.3999 L3.0199,19.1609 L3.1109,18.5209 L2.6039,18.1229 L2.0049,18.3609 Z M45.2149,18.6439 L45.3359,19.4409 L46.0829,19.7349 L46.7139,19.2349 L46.5929,18.4369 L45.8459,18.1429 L45.2149,18.6439 Z M8.3309,18.7849 L8.5189,19.2429 L9.0109,19.3099 L9.3149,18.9169 L9.1259,18.4569 L8.6329,18.3919 L8.3309,18.7849 Z M47.1369,19.1199 L47.3639,19.6909 L47.9719,19.7779 L48.3509,19.2979 L48.1249,18.7279 L47.5169,18.6399 L47.1369,19.1199 Z M6.6279,18.7369 L6.2739,19.3869 L6.5579,19.8509 L6.3379,19.8359 L6.1419,20.1269 L5.9629,20.0209 L5.6459,20.2009 L5.5869,20.0929 L4.7009,20.0769 L4.2449,20.8359 L4.5739,21.4339 L4.5719,21.7359 L4.4509,21.7329 L3.9929,22.4929 L4.4229,23.2689 L5.1049,23.2819 L5.3659,23.4339 L5.3029,23.5379 L5.7319,24.3139 L6.6179,24.3299 L6.9699,23.7459 L7.2329,23.5959 L7.2919,23.7019 L8.1779,23.7189 L8.6349,22.9609 L8.3049,22.3629 L8.3059,22.0609 L8.4299,22.0639 L8.8869,21.3039 L8.4569,20.5279 L7.7729,20.5159 L7.4219,20.3089 L7.2719,20.0029 L7.3979,19.9999 L7.5099,19.7949 L7.5799,20.2309 L8.1199,20.4369 L8.5669,20.0719 L8.4769,19.5029 L7.9359,19.2959 L7.6599,19.5209 L7.7529,19.3499 L7.3679,18.7179 L6.6279,18.7369 Z M4.9349,19.3009 L5.0259,19.8709 L5.5669,20.0779 L6.0149,19.7129 L5.9229,19.1409 L5.3829,18.9359 L4.9349,19.3009 Z M36.3789,19.2049 L36.1589,19.7839 L36.5489,20.2639 L37.1589,20.1659 L37.3809,19.5879 L36.9909,19.1069 L36.3789,19.2049 Z M3.3529,19.2189 L3.0779,19.9179 L3.5459,20.5059 L4.2899,20.3939 L4.5639,19.6959 L4.0959,19.1069 L3.3529,19.2189 Z M12.1909,20.1659 L12.4059,20.7069 L12.9819,20.7889 L13.3409,20.3329 L13.1249,19.7929 L12.5489,19.7099 L12.1909,20.1659 Z M35.1119,19.9159 L35.0469,20.3829 L35.4219,20.6729 L35.8579,20.4929 L35.9219,20.0239 L35.5469,19.7359 L35.1119,19.9159 Z M9.0919,20.0889 L8.8169,20.7879 L9.2849,21.3739 L10.0269,21.2639 L10.3029,20.5639 L9.8349,19.9759 L9.0919,20.0889 Z M2.1169,21.2909 L2.3049,21.7519 L2.7979,21.8169 L3.1009,21.4239 L2.9129,20.9639 L2.4199,20.8969 L2.1169,21.2909 Z M44.6149,21.2549 L44.5519,21.7239 L44.9269,22.0119 L45.3499,21.8379 L45.2729,21.9409 L45.4619,22.3989 L45.9529,22.4669 L46.2569,22.0729 L46.0679,21.6139 L45.5759,21.5459 L45.3649,21.8209 L45.4269,21.3659 L45.0509,21.0759 L44.6149,21.2549 Z M34.7379,21.4569 L34.6449,22.0959 L35.1529,22.4949 L35.7539,22.2559 L35.8439,21.6169 L35.3379,21.2169 L34.7379,21.4569 Z M36.5049,22.0549 L36.5609,22.4329 L36.3389,22.4629 L36.0349,23.2069 L35.9019,23.1889 L35.5219,23.6699 L35.7509,24.2389 L36.3579,24.3269 L36.6369,23.9719 L37.4259,23.8639 L37.7609,23.0439 L37.6619,22.9159 L38.0019,22.6459 L37.8829,21.8489 L37.1339,21.5559 L36.5049,22.0549 Z M8.4529,22.0519 L8.5459,22.6229 L9.0849,22.8289 L9.5329,22.4639 L9.4409,21.8929 L8.9009,21.6869 L8.4529,22.0519 Z M9.7779,22.3719 L9.9679,22.8319 L10.4589,22.8969 L10.7619,22.5049 L10.5729,22.0449 L10.0809,21.9779 L9.7779,22.3719 Z M11.2219,22.4569 L11.3549,22.7779 L11.6979,22.8249 L11.9109,22.5489 L11.7789,22.2269 L11.4349,22.1809 L11.2219,22.4569 Z M2.8499,22.5329 L2.5769,23.2329 L3.0449,23.8199 L3.7869,23.7079 L4.0619,23.0079 L3.5929,22.4219 L2.8499,22.5329 Z M1.2519,23.3319 L1.1589,23.9719 L1.6669,24.3709 L2.2659,24.1319 L2.3589,23.4919 L1.8509,23.0919 L1.2519,23.3319 Z M8.5899,23.4039 L8.3149,24.1009 L8.7819,24.6899 L9.5269,24.5769 L9.7999,23.8779 L9.3319,23.2899 L8.5899,23.4039 Z M4.3099,23.7229 L4.4019,24.2949 L4.9419,24.5009 L5.3909,24.1339 L5.2989,23.5659 L4.7599,23.3599 L4.3099,23.7229 Z M49.4039,23.6299 L49.3099,24.2689 L49.8179,24.6689 L50.4169,24.4289 L50.5109,23.7899 L50.0029,23.3899 L49.4039,23.6299 Z M6.8639,24.0839 L6.9549,24.6559 L7.4959,24.8599 L7.9439,24.4959 L7.8529,23.9249 L7.3119,23.7189 L6.8639,24.0839 Z M47.1019,24.0919 L46.7649,24.9129 L47.3079,25.6139 L48.1849,25.4949 L48.5229,24.6739 L47.9789,23.9719 L47.1019,24.0919 Z M0.0649,24.2129 L-0.0001,24.6599 L0.3549,24.9399 L0.7739,24.7729 L0.8399,24.3249 L0.4829,24.0459 L0.0649,24.2129 Z M3.5639,24.8799 L3.7519,25.3399 L4.2449,25.4059 L4.5489,25.0119 L4.3589,24.5519 L3.8679,24.4859 L3.5639,24.8799 Z M5.4689,24.6249 L5.1949,25.3229 L5.6639,25.9109 L6.4049,25.7989 L6.6799,25.0989 L6.2119,24.5119 L5.4689,24.6249 Z M7.3939,25.4189 L7.5839,25.8789 L8.0759,25.9439 L8.3789,25.5519 L8.1899,25.0919 L7.6969,25.0259 L7.3939,25.4189 Z M3.1739,25.9069 L3.3079,26.2279 L3.6519,26.2749 L3.8649,25.9979 L3.7319,25.6769 L3.3889,25.6289 L3.1739,25.9069 Z M34.9149,26.1179 L35.1049,26.5779 L35.5969,26.6449 L35.8999,26.2519 L35.7119,25.7929 L35.2189,25.7259 L34.9149,26.1179 Z M36.3699,26.1589 L36.4699,26.8339 L37.1029,27.0849 L37.6379,26.6609 L37.5379,25.9869 L36.9049,25.7359 L36.3699,26.1589 Z M33.7649,26.1039 L33.8969,26.4259 L34.2409,26.4729 L34.4539,26.1959 L34.3219,25.8749 L33.9769,25.8279 L33.7649,26.1039 Z M5.1799,26.4699 L5.0869,27.1079 L5.2919,27.2679 L5.4039,27.5499 L6.0429,27.6429 L6.4409,27.1329 L6.2739,26.7139 L6.2869,26.6289 L6.2189,26.5759 L6.2019,26.5349 L6.1589,26.5289 L5.7789,26.2299 L5.1799,26.4699 Z M9.5219,27.6099 L9.7619,28.2099 L10.4009,28.3029 L10.8009,27.7949 L10.5619,27.1939 L9.9229,27.1029 L9.5219,27.6099 Z M47.6839,27.9199 L47.8729,28.3799 L48.3659,28.4449 L48.6689,28.0509 L48.4799,27.5919 L47.9869,27.5269 L47.6839,27.9199 Z M5.6729,28.1619 L5.7909,28.8629 L6.4559,29.1109 L7.0049,28.6599 L6.8859,27.9579 L6.2209,27.7089 L5.6729,28.1619 Z M8.5789,28.6019 L8.6959,29.3039 L9.3619,29.5509 L9.9099,29.0999 L9.7929,28.3989 L9.1279,28.1499 L8.5789,28.6019 Z M34.4129,28.8049 L34.5229,29.7499 L35.3959,30.1269 L35.4939,30.0539 L35.6059,30.1979 L36.4839,30.0779 L36.8189,29.2559 L36.2769,28.5549 L36.0039,28.5939 L35.1759,28.2379 L34.4129,28.8049 Z M7.3739,28.4899 L7.1879,29.0029 L7.4449,29.3089 L6.8789,28.9769 L6.1819,29.3749 L6.1799,29.9679 L6.0579,30.1819 L5.9909,30.1439 L6.1659,29.6579 L5.8139,29.2399 L5.2769,29.3359 L5.0899,29.8499 L5.4429,30.2689 L5.8359,30.1979 L5.2649,30.5229 L5.2609,31.3249 L5.7759,31.6249 L5.8979,31.8349 L5.8299,31.8739 L5.4979,31.4799 L4.9609,31.5749 L4.7749,32.0899 L5.1279,32.5079 L5.6649,32.4119 L5.8009,32.0379 L5.7979,32.6929 L6.4889,33.0979 L7.0059,32.8019 L7.2499,32.8009 L7.2499,32.8779 L6.7419,32.9679 L6.5569,33.4839 L6.9079,33.9019 L7.4469,33.8059 L7.6329,33.2909 L7.3759,32.9859 L7.9409,33.3159 L8.6379,32.9209 L8.6409,32.3259 L8.7629,32.1129 L8.8289,32.1519 L8.6539,32.6369 L9.0059,33.0539 L9.5439,32.9589 L9.7309,32.4449 L9.3779,32.0269 L8.9869,32.0969 L9.5549,31.7729 L9.5589,30.9699 L9.0459,30.6709 L8.9229,30.4599 L8.9889,30.4209 L9.3209,30.8149 L9.8599,30.7189 L10.0449,30.2049 L9.6939,29.7869 L9.1559,29.8829 L9.0199,30.2589 L9.0239,29.6029 L8.3309,29.1979 L7.8149,29.4919 L7.5709,29.4939 L7.5709,29.4159 L8.0789,29.3259 L8.2639,28.8129 L7.9119,28.3929 L7.3739,28.4899 Z M4.3439,28.7539 L4.2789,29.2469 L4.6719,29.5509 L5.1319,29.3619 L5.1979,28.8679 L4.8029,28.5649 L4.3439,28.7539 Z M10.1639,29.5749 L10.0969,30.0669 L10.4909,30.3699 L10.9499,30.1819 L11.0169,29.6879 L10.6229,29.3859 L10.1639,29.5749 Z M33.4829,29.7419 L33.3909,30.3799 L33.8979,30.7799 L34.4979,30.5399 L34.5909,29.9019 L34.0829,29.5019 L33.4829,29.7419 Z M2.4129,30.3959 L2.6519,30.9939 L3.2909,31.0879 L3.6909,30.5799 L3.4519,29.9799 L2.8119,29.8869 L2.4129,30.3959 Z M3.8389,30.4589 L3.9569,31.1599 L4.6219,31.4079 L5.1709,30.9559 L5.0529,30.2549 L4.3869,30.0069 L3.8389,30.4589 Z M46.1579,30.3059 L45.8249,31.1259 L46.3669,31.8279 L47.2449,31.7079 L47.5809,30.8879 L47.0389,30.1849 L46.1579,30.3059 Z M31.6729,31.0489 L31.6069,31.5409 L32.0009,31.8449 L32.4599,31.6559 L32.5259,31.1629 L32.1329,30.8589 L31.6729,31.0489 Z M9.6509,31.3389 L9.7679,32.0399 L10.4339,32.2879 L10.9819,31.8359 L10.8639,31.1349 L10.1999,30.8879 L9.6509,31.3389 Z M11.1289,31.7169 L11.3689,32.3149 L12.0099,32.4079 L12.4079,31.9009 L12.1689,31.2999 L11.5289,31.2079 L11.1289,31.7169 Z M47.7289,31.7499 L47.4949,32.3239 L47.8759,32.8139 L48.4889,32.7309 L48.7249,32.1559 L48.3449,31.6659 L47.7289,31.7499 Z M33.0899,31.9169 L32.8079,32.5919 L33.2509,33.1749 L33.9769,33.0819 L34.2599,32.4069 L33.8169,31.8249 L33.0899,31.9169 Z M3.8709,32.1129 L3.8039,32.6039 L4.1979,32.9089 L4.6589,32.7189 L4.7229,32.2279 L4.3309,31.9239 L3.8709,32.1129 Z M43.7129,32.9989 L43.9019,33.4579 L44.3939,33.5239 L44.4759,33.4179 L44.7729,33.6459 L45.2319,33.4569 L45.2989,32.9639 L44.9059,32.6609 L44.5619,32.8019 L44.5089,32.6709 L44.0159,32.6039 L43.7129,32.9989 Z M4.9109,33.1969 L5.0279,33.8969 L5.6939,34.1449 L6.2409,33.6919 L6.1249,32.9909 L5.4589,32.7429 L4.9109,33.1969 Z M9.6899,32.9349 L9.6229,33.4259 L10.0159,33.7289 L10.4769,33.5399 L10.5419,33.0479 L10.1489,32.7449 L9.6899,32.9349 Z M14.4909,32.9589 L14.4149,33.4829 L14.8309,33.8099 L15.3229,33.6129 L15.3989,33.0889 L14.9839,32.7619 L14.4909,32.9589 Z M42.6679,33.2679 L42.3859,33.9429 L42.8289,34.5249 L43.5559,34.4329 L43.8389,33.7579 L43.3949,33.1749 L42.6679,33.2679 Z M7.8179,33.6359 L7.9339,34.3369 L8.5999,34.5849 L9.1479,34.1329 L9.0309,33.4309 L8.3649,33.1829 L7.8179,33.6359 Z M27.4789,34.3219 L27.7189,34.9219 L28.3579,35.0139 L28.7559,34.5069 L28.5169,33.9079 L27.8789,33.8139 L27.4789,34.3219 Z M29.3209,34.4609 L29.4559,35.3369 L30.2819,35.6559 L30.9739,35.0999 L30.8379,34.2239 L30.0119,33.9039 L29.3209,34.4609 Z M4.0199,34.5009 L4.2589,35.0989 L4.8989,35.1909 L5.2979,34.6849 L5.0579,34.0849 L4.4199,33.9919 L4.0199,34.5009 Z M6.5429,34.2039 L6.4769,34.6959 L6.8709,34.9999 L7.3309,34.8099 L7.3949,34.3179 L7.0019,34.0139 L6.5429,34.2039 Z M14.3819,34.1289 L14.1659,34.7259 L14.5619,35.1949 L14.2029,35.2079 L13.8469,35.8779 L14.1059,36.2929 L14.0209,36.2879 L13.8549,36.5389 L13.7659,36.4839 L13.4289,36.6669 L13.3759,36.5659 L12.5279,36.5359 L12.0779,37.2559 L12.2199,37.5219 L11.8049,37.7889 L11.8129,38.0009 L11.7399,37.6049 L11.2769,37.4419 L10.9079,37.7619 L10.9979,38.2409 L11.4599,38.4029 L11.8179,38.0939 L11.8319,38.3719 L12.0809,38.5019 L11.8289,38.9039 L12.2259,39.6539 L12.9119,39.6789 L13.3759,39.9619 L13.4719,40.1569 L13.4519,40.1569 L13.0969,40.8279 L13.4979,41.4709 L13.7719,41.4619 L13.2579,41.5539 L13.0419,42.1519 L13.4519,42.6369 L14.0769,42.5249 L14.2919,41.9269 L13.8959,41.4569 L14.2579,41.4449 L14.6139,40.7749 L14.3539,40.3599 L14.4379,40.3649 L14.6049,40.1149 L14.6939,40.1699 L15.0309,39.9859 L15.0829,40.0869 L15.9319,40.1159 L16.3819,39.3979 L16.2399,39.1309 L16.6549,38.8649 L16.6449,38.6529 L16.7209,39.0479 L17.1819,39.2089 L17.5519,38.8929 L17.4609,38.4109 L16.9999,38.2499 L16.6419,38.5589 L16.6289,38.2819 L16.3789,38.1519 L16.6309,37.7489 L16.2329,36.9989 L15.5479,36.9749 L15.0829,36.6909 L14.9869,36.4969 L15.0069,36.4949 L15.3629,35.8249 L14.9609,35.1819 L14.6889,35.1909 L15.2009,35.0989 L15.4159,34.5019 L15.0079,34.0169 L14.3819,34.1289 Z M12.3839,34.6999 L12.5389,35.0759 L12.9429,35.1319 L13.1919,34.8079 L13.0369,34.4299 L12.6329,34.3759 L12.3839,34.6999 Z M8.3789,35.1609 L8.6189,35.7599 L9.2579,35.8519 L9.6569,35.3459 L9.4179,34.7449 L8.7789,34.6539 L8.3789,35.1609 Z M9.9009,34.8739 L9.8249,35.3999 L10.2419,35.7259 L10.7329,35.5299 L10.8089,35.0059 L10.3919,34.6789 L9.9009,34.8739 Z M16.1999,35.2379 L16.3549,35.6139 L16.7589,35.6689 L17.0069,35.3469 L16.8519,34.9689 L16.4489,34.9149 L16.1999,35.2379 Z M3.4419,35.7269 L3.6089,36.1469 L4.0559,36.2109 L4.3359,35.8559 L4.1679,35.4369 L3.7219,35.3719 L3.4419,35.7269 Z M12.7869,35.7479 L12.8579,36.2619 L13.3379,36.4599 L13.7489,36.1429 L13.6789,35.6269 L13.1999,35.4299 L12.7869,35.7479 Z M11.2149,35.7059 L10.9529,36.3269 L11.3589,36.8649 L12.0289,36.7819 L12.2909,36.1599 L11.8849,35.6229 L11.2149,35.7059 Z M15.3319,36.1059 L15.4009,36.6209 L15.8809,36.8179 L16.2929,36.4999 L16.2239,35.9869 L15.7429,35.7879 L15.3319,36.1059 Z M18.4749,36.1729 L18.3999,36.6979 L18.8159,37.0259 L19.3069,36.8279 L19.3829,36.3039 L18.9689,35.9769 L18.4749,36.1729 Z M44.9249,36.7519 L45.0609,37.6279 L45.8879,37.9469 L46.5789,37.3909 L46.4429,36.5159 L45.6159,36.1959 L44.9249,36.7519 Z M16.9319,36.5719 L16.6679,37.1929 L17.0749,37.7309 L17.7449,37.6469 L18.0069,37.0259 L17.6009,36.4879 L16.9319,36.5719 Z M47.0589,37.3569 L47.2999,37.9579 L47.9389,38.0489 L48.3369,37.5419 L48.0989,36.9419 L47.4599,36.8509 L47.0589,37.3569 Z M32.3109,37.4469 L32.0279,38.1219 L32.4699,38.7039 L33.1979,38.6129 L33.4799,37.9369 L33.0369,37.3549 L32.3109,37.4469 Z M10.0109,37.7339 L10.1659,38.1109 L10.5689,38.1649 L10.8189,37.8419 L10.6629,37.4659 L10.2589,37.4119 L10.0109,37.7339 Z M30.6329,38.4229 L30.5679,38.9149 L30.9609,39.2189 L31.4199,39.0299 L31.4869,38.5369 L31.0929,38.2339 L30.6329,38.4229 Z M19.4279,38.9139 L19.6679,39.5139 L20.2229,39.5949 L19.8799,39.8949 L20.0059,40.5369 L20.5719,40.7309 L20.3319,40.8759 L20.3339,41.0159 L19.9799,41.0549 L19.7769,41.5259 L20.0819,41.9369 L20.5909,41.8779 L20.6549,41.7309 L20.8369,41.8339 L20.7829,41.8549 L20.7359,42.1869 L20.2409,42.1989 L19.9909,42.6599 L20.0449,42.7489 L19.8319,42.5109 L19.3389,42.6119 L19.1909,43.0609 L18.8969,42.8349 L18.4379,43.0249 L18.3719,43.5169 L18.7659,43.8199 L19.2239,43.6289 L19.2829,43.2019 L19.5159,43.4649 L20.0089,43.3629 L20.0399,43.2679 L20.0429,43.5739 L20.2979,43.7169 L19.7689,43.5309 L19.2889,43.9449 L19.4069,44.5669 L19.4549,44.5819 L18.9209,44.5069 L18.5409,44.9879 L18.7689,45.5579 L19.3759,45.6459 L19.7559,45.1639 L19.5359,44.6109 L20.0029,44.7749 L20.4829,44.3619 L20.3689,43.7549 L20.6309,43.9029 L20.7539,43.8299 L20.6289,44.2019 L20.9489,44.5679 L20.9929,44.5579 L20.6049,44.7189 L20.5419,45.1869 L20.9149,45.4749 L21.3529,45.2969 L21.4159,44.8279 L21.0519,44.5469 L21.4279,44.4729 L21.5819,44.0129 L21.4919,43.9079 L21.7979,44.0799 L22.0509,43.9309 L21.6239,44.2989 L21.7419,44.9199 L22.3389,45.1289 L22.3809,45.0929 L22.0459,45.5189 L22.2729,46.0889 L22.8799,46.1749 L23.2599,45.6939 L23.0309,45.1249 L22.4429,45.0389 L22.8189,44.7159 L22.7009,44.0949 L22.1179,43.8899 L22.3779,43.7359 L22.3759,43.5919 L22.6359,43.8889 L23.1139,43.7929 L23.1269,43.7529 L23.0709,44.1679 L23.4449,44.4559 L23.8819,44.2759 L23.9449,43.8079 L23.5699,43.5199 L23.1469,43.6939 L23.2689,43.3319 L22.9469,42.9659 L22.8379,42.9879 L23.1249,42.8159 L23.1229,42.6829 L23.2029,43.0889 L23.8209,43.3029 L24.2859,42.8979 L24.4649,43.3449 L25.1019,43.4369 L25.5009,42.9329 L25.5889,43.1439 L26.0559,43.2079 L26.2849,42.9129 L26.3449,43.2009 L26.3709,43.2099 L26.1879,43.5519 L26.4459,43.9649 L26.9329,43.9479 L27.0999,43.6339 L27.1829,43.8039 L27.2619,43.8079 L27.1309,43.9069 L27.1869,44.3789 L27.6249,44.5659 L27.7229,44.4919 L27.8659,44.7289 L27.6059,44.7819 L27.4099,45.3619 L27.7649,45.7639 L27.3669,45.9229 L27.2799,46.5299 L27.7609,46.9099 L28.3309,46.6819 L28.4179,46.0739 L28.0409,45.7749 L28.4139,45.6989 L28.6089,45.1189 L28.2609,44.7229 L28.4979,44.7169 L28.5539,44.6119 L28.8509,44.7389 L29.1909,44.4839 L29.3419,44.6889 L29.9569,44.6209 L30.2049,44.0539 L30.0119,43.7919 L30.0659,43.8079 L30.3719,43.5319 L30.4979,43.8379 L30.9659,43.8999 L31.2539,43.5259 L31.0749,43.0889 L30.7069,43.0409 L30.6059,42.7889 L30.3199,42.7489 L30.4459,42.4629 L30.0809,41.9629 L29.4969,42.0279 L29.4749,41.8549 L29.0379,41.6689 L28.9399,41.7419 L28.7959,41.5039 L29.0579,41.4529 L29.2529,40.8729 L28.8979,40.4699 L29.2949,40.3109 L29.3829,39.7049 L28.9029,39.3239 L28.3319,39.5519 L28.2439,40.1599 L28.6249,40.4589 L28.2479,40.5349 L28.0529,41.1149 L28.4039,41.5129 L28.1649,41.5189 L28.1079,41.6229 L27.8109,41.4949 L27.4709,41.7499 L27.3209,41.5459 L26.7069,41.6139 L26.4579,42.1789 L26.6519,42.4439 L26.5979,42.4269 L26.2899,42.7029 L26.1649,42.3969 L25.6969,42.3349 L25.4129,42.7029 L25.2639,42.3299 L24.6239,42.2389 L24.2769,42.6799 L24.1879,42.2309 L23.5699,42.0189 L23.1179,42.4129 L23.1139,42.1319 L23.0169,42.0779 L23.3789,42.0029 L23.5289,41.5529 L23.8229,41.7789 L24.2809,41.5899 L24.3469,41.0969 L23.9539,40.7929 L23.4949,40.9829 L23.4379,41.4109 L23.2039,41.1489 L23.0709,41.1769 L23.0039,40.5319 L22.3969,40.2609 L22.0749,40.4919 L22.1069,40.4059 L21.7919,40.0509 L22.1349,39.9089 L22.1999,39.4179 L21.8069,39.1129 L21.3469,39.3029 L21.2819,39.7959 L21.6239,40.0579 L21.2799,40.1309 L21.1209,40.6079 L21.1709,40.6639 L20.9159,40.5229 L20.8059,40.5909 L21.1169,40.3179 L20.9909,39.6769 L20.4089,39.4789 L20.7069,39.0999 L20.4669,38.4999 L19.8289,38.4079 L19.4279,38.9139 Z M21.8829,40.8949 L21.9189,41.2399 L21.7369,40.9449 L21.6369,40.9469 L21.8829,40.8949 Z M22.0119,41.3939 L21.9779,41.3369 L22.3599,41.5069 L21.9429,41.5189 L22.0119,41.3939 Z M22.6199,41.5219 L22.5659,41.6879 L22.4909,41.5669 L22.5339,41.5849 L22.6199,41.5219 Z M27.5789,42.2929 L27.9239,42.4399 L28.0359,42.3569 L28.1279,42.5059 L28.0819,42.4989 L28.0809,42.4999 L27.8979,42.7329 L27.4979,42.5179 L27.4739,42.5329 L27.5789,42.2929 Z M28.8449,42.8499 L28.7429,42.5949 L28.8189,42.5929 L28.8749,42.4939 L29.1509,42.6129 L29.2379,42.5479 L29.2159,42.5989 L29.4539,42.9189 L29.1329,42.7489 L28.8699,42.9109 L28.8449,42.8499 Z M27.0609,42.6529 L27.3289,42.6229 L27.0879,42.7729 L27.0609,42.6529 Z M29.5749,43.4619 L29.5999,43.5829 L29.3349,43.6119 L29.5749,43.4619 Z M28.7629,43.5019 L29.1659,43.7169 L29.1899,43.7019 L29.0839,43.9429 L28.7389,43.7939 L28.6259,43.8789 L28.5359,43.7279 L28.5809,43.7359 L28.7629,43.5019 Z M17.6409,38.8109 L17.7959,39.1879 L18.2009,39.2419 L18.4489,38.9189 L18.2939,38.5419 L17.8889,38.4889 L17.6409,38.8109 Z M33.1469,39.0009 L33.0689,40.1419 L34.0169,40.7789 L35.0439,40.2769 L35.1229,39.1369 L34.1739,38.4989 L33.1469,39.0009 Z M41.8749,38.7859 L41.5879,39.4789 L42.0459,40.0739 L42.7909,39.9749 L43.0749,39.2809 L42.6169,38.6869 L41.8749,38.7859 Z M10.7149,39.0059 L10.4539,39.6279 L10.8589,40.1649 L11.5289,40.0819 L11.7909,39.4609 L11.3839,38.9209 L10.7149,39.0059 Z M22.9319,39.4459 L23.1719,40.0459 L23.8099,40.1369 L24.2099,39.6309 L23.9709,39.0309 L23.3319,38.9389 L22.9319,39.4459 Z M9.1519,39.8249 L9.0759,40.3499 L9.4909,40.6759 L9.9839,40.4809 L10.0579,39.9559 L9.6439,39.6289 L9.1519,39.8249 Z M16.4309,39.8719 L16.1679,40.4929 L16.5749,41.0309 L17.2459,40.9479 L17.5069,40.3259 L17.0999,39.7879 L16.4309,39.8719 Z M12.1669,40.1539 L12.2369,40.6669 L12.7169,40.8649 L13.1289,40.5479 L13.0589,40.0329 L12.5789,39.8359 L12.1669,40.1539 Z M43.3859,40.2079 L43.3159,40.7269 L43.7289,41.0449 L44.2119,40.8469 L44.2809,40.3289 L43.8679,40.0099 L43.3859,40.2079 Z M18.8189,40.3229 L18.7529,40.8159 L19.1459,41.1199 L19.6049,40.9299 L19.6709,40.4399 L19.2779,40.1349 L18.8189,40.3229 Z M26.9359,40.7559 L27.1149,41.1909 L27.5829,41.2549 L27.8699,40.8809 L27.6929,40.4439 L27.2249,40.3819 L26.9359,40.7559 Z M7.9059,40.5739 L7.8519,40.9409 L8.1419,41.1699 L8.4869,41.0319 L8.5399,40.6649 L8.2499,40.4349 L7.9059,40.5739 Z M25.3319,40.7289 L25.2449,41.3349 L25.7249,41.7149 L26.2969,41.4869 L26.3839,40.8789 L25.9009,40.4989 L25.3319,40.7289 Z M29.3899,41.1009 L29.5709,41.5389 L30.0389,41.6009 L30.3269,41.2269 L30.1459,40.7899 L29.6789,40.7289 L29.3899,41.1009 Z M11.4539,41.3079 L11.6069,41.6849 L12.0119,41.7379 L12.2599,41.4169 L12.1049,41.0389 L11.7009,40.9849 L11.4539,41.3079 Z M17.8499,41.2229 L17.7969,41.5899 L18.0889,41.8179 L18.4339,41.6819 L18.4859,41.3139 L18.1939,41.0849 L17.8499,41.2229 Z M36.6679,41.3119 L36.4289,41.9509 L36.8609,42.4759 L37.5339,42.3659 L37.7739,41.7269 L37.3409,41.1999 L36.6679,41.3119 Z M32.3509,41.4269 L32.2119,41.8089 L32.4729,42.1189 L32.8739,42.0479 L33.0119,41.6659 L32.7509,41.3559 L32.3509,41.4269 Z M15.2669,41.8449 L15.4219,42.2229 L15.8269,42.2779 L16.0749,41.9539 L15.9209,41.5769 L15.5159,41.5229 L15.2669,41.8449 Z M30.4879,41.9569 L30.6679,42.3939 L31.1369,42.4559 L31.4239,42.0829 L31.2449,41.6459 L30.7769,41.5829 L30.4879,41.9569 Z M39.7059,42.3209 L39.8159,43.2669 L40.6899,43.6429 L41.4529,43.0739 L41.3429,42.1299 L40.4699,41.7529 L39.7059,42.3209 Z M13.0639,42.9959 L12.9879,43.5199 L13.4049,43.8469 L13.8959,43.6509 L13.9729,43.1269 L13.5569,42.7989 L13.0639,42.9959 Z M36.3949,43.3499 L36.3289,43.8429 L36.7229,44.1439 L37.1819,43.9559 L37.2479,43.4649 L36.8539,43.1599 L36.3949,43.3499 Z M25.5859,43.4319 L25.4469,43.8159 L25.7069,44.1249 L26.1069,44.0539 L26.2469,43.6719 L25.9859,43.3619 L25.5859,43.4319 Z M17.6699,43.5389 L17.6159,43.9069 L17.9079,44.1359 L18.2519,43.9969 L18.3049,43.6309 L18.0139,43.4019 L17.6699,43.5389 Z M30.3679,44.7479 L30.2809,45.3549 L30.7619,45.7339 L31.3309,45.5079 L31.4189,44.8989 L30.9359,44.5209 L30.3679,44.7479 Z M40.9349,45.0679 L41.1739,45.6679 L41.8129,45.7599 L42.2129,45.2539 L41.9719,44.6529 L41.3339,44.5609 L40.9349,45.0679 Z M26.3359,45.0079 L26.5149,45.4429 L26.9839,45.5079 L27.2709,45.1319 L27.0919,44.6959 L26.6249,44.6339 L26.3359,45.0079 Z M27.4829,47.0179 L27.3299,47.4369 L27.6169,47.7799 L28.0579,47.7019 L28.2099,47.2819 L27.9229,46.9399 L27.4829,47.0179 Z" id="Fill-1"></path>
                <path d="M68.235,26.093 L71.332,26.093 L71.332,21.878 L68.235,21.878 L68.235,26.093 Z M73.434,29.958 L72.238,31.155 L68.235,31.155 L68.235,26.667 L71.332,26.667 L71.332,27.731 L73.674,27.731 L73.678,21.303 L73.674,21.303 L73.674,21.3 L73.676,21.3 L72.504,20.302 L71.332,21.3 L71.332,21.303 L68.235,21.303 L68.234,17.61 L74.355,17.61 L74.355,17.035 L73.153,15.838 L71.956,17.035 L68.234,17.035 L68.234,17.031 L68.235,17.031 L67.035,16.035 L65.836,17.031 L65.837,31.726 L65.836,31.726 L67.035,32.723 L68.232,31.728 L74.636,31.728 L74.636,31.155 L73.434,29.958 Z" id="Fill-2"></path>
                <g id="编组" transform="translate(55.000000, 13.780000)">
                    <path d="M10.4784,17.2461 C9.9334,15.2801 9.0024,13.6801 7.0664,12.8301 C7.2234,12.2061 7.3484,11.5451 7.4454,10.8521 L10.1054,10.8521 L10.1054,10.2771 L8.9044,9.0801 L7.7074,10.2771 L7.5184,10.2771 C7.6804,8.8641 7.7334,7.3171 7.7134,5.6421 L10.1054,5.6421 L10.1054,5.0661 L8.9044,3.8691 L7.7074,5.0661 L5.1454,5.0661 C5.6464,4.0921 6.0134,2.9971 6.2524,1.7801 L3.7724,1.4021 C3.4564,4.2801 2.8214,6.6051 0.6284,9.2851 C2.4984,8.4521 3.8694,7.2271 4.8264,5.6421 L5.3114,5.6421 C5.3384,7.3811 5.3474,8.8991 5.2684,10.2771 L1.8184,10.2771 L1.8204,10.8521 L5.2284,10.8521 C4.9774,14.0671 4.1614,16.5531 1.7894,19.4501 C4.5374,18.2251 6.1034,16.1641 6.9274,13.3361 C7.8494,14.7571 8.0024,16.1691 8.0824,17.7611 L10.4784,17.2461 Z" id="Fill-3"></path>
                    <polygon id="Fill-5" points="35.5634 4.8223 41.2644 4.8223 41.2644 4.2483 40.0634 3.0513 38.8664 4.2483 35.7994 4.2483 36.6804 2.0973 36.6834 2.0983 35.9074 0.7453 34.4344 1.2593 33.2084 4.2483 31.5964 4.2483 31.5974 4.8223 32.9724 4.8223 30.7864 10.2913 32.9774 11.1303 33.2474 10.4713 34.8894 10.4713 34.8894 13.3713 31.4304 13.3713 31.4324 13.9453 34.8894 13.9453 34.8894 18.8973 37.2884 18.8973 37.2884 13.9453 41.4064 13.9453 41.4064 13.3713 40.2054 12.1743 39.0074 13.3713 37.2884 13.3713 37.2884 10.4713 41.4064 10.4713 41.4064 9.8973 40.2054 8.7003 39.0074 9.8973 37.2884 9.8973 37.2884 7.3933 37.2894 7.3933 36.0894 6.3963 34.8894 7.3933 34.8894 9.8973 33.4834 9.8973"></polygon>
                    <path d="M31.2211,2.6387 L30.0191,1.4417 L28.8221,2.6387 L26.7001,2.6387 L26.7001,2.6227 L26.7011,2.6227 L25.5021,1.6257 L24.3021,2.6227 L24.3021,18.8717 L26.7001,18.8717 L26.7001,3.2127 L28.5811,3.2127 L27.4691,8.2647 L27.7581,8.5817 C30.5091,11.6807 28.5891,13.1797 26.7761,12.9097 L28.1571,15.4227 C32.5961,14.7497 31.3161,9.7787 28.1381,7.9927 L31.2211,3.2127 L31.2211,2.6387 Z" id="Fill-7"></path>
                    <polyline id="Fill-9" points="46.266 3.1241 59.579 3.1241 59.579 2.5281 58.333 1.2871 57.093 2.5281 46.266 2.5281"></polyline>
                    <path d="M61.8412,7.4834 L61.8412,6.8874 L60.5952,5.6464 L59.3552,6.8874 L44.0042,6.8874 L44.0042,7.4834 L49.3842,7.4834 C49.4722,17.0764 44.0212,18.6844 44.0212,18.6844 C51.9932,18.1644 52.0342,8.4704 52.0172,7.4834 L53.4412,7.4834 L53.4212,15.8424 C53.4212,15.8424 53.3762,18.3464 55.7082,18.4814 L55.7142,18.4814 C55.7212,18.4814 55.7272,18.4824 55.7332,18.4824 L55.7372,18.4814 L59.0722,18.4774 L59.5302,18.4944 L59.5482,18.4764 L59.5852,18.4764 L61.6802,16.3734 L61.5322,14.7624 L59.9222,14.6144 L58.5402,15.9954 L56.9782,15.9954 C56.0942,15.9264 55.9562,15.0214 55.9382,14.8704 C55.9262,13.0604 55.9422,8.0804 55.9442,7.4834 L61.8412,7.4834 Z" id="Fill-11"></path>
                    <polygon id="Fill-13" points="68.7079 8.9737 67.3809 8.2097 66.0519 8.9777 66.0529 10.5107 67.3829 11.2787 68.7079 10.5107"></polygon>
                </g>
            </g>
        </g>
    </g>
</svg>